<svg width="11" height="11" viewBox="0 0 11 11" fill="none" xmlns="http://www.w3.org/2000/svg">
<path d="M7.79134 2.5625C9.02769 2.5625 10.0413 3.57614 10.0413 4.8125C10.0413 5.34949 9.79293 5.9333 9.35091 6.53613C8.91258 7.13385 8.31725 7.70562 7.70442 8.20703C7.09406 8.70642 6.48053 9.12419 6.01888 9.41797C5.80909 9.55147 5.63089 9.65754 5.50032 9.73438C5.36966 9.65694 5.19156 9.54934 4.98177 9.41504C4.51999 9.11942 3.90671 8.69913 3.29622 8.19824C2.68322 7.69528 2.08725 7.12331 1.64876 6.52637C1.20618 5.92382 0.958328 5.34297 0.958328 4.8125C0.958328 3.57614 1.97197 2.5625 3.20833 2.5625C3.95103 2.5625 4.60221 2.90927 5.0013 3.45605L5.07845 3.56836L5.50032 4.23145L5.9222 3.56836C6.31117 2.95728 6.99914 2.56261 7.79134 2.5625Z" fill="white" stroke="#FF2625"/>
</svg>
